<?xml version="1.0" standalone="no"?><!DOCTYPE svg PUBLIC "-//W3C//DTD SVG 1.1//EN" "http://www.w3.org/Graphics/SVG/1.1/DTD/svg11.dtd"><svg viewBox="0 0 1024 1024" version="1.1" xmlns="http://www.w3.org/2000/svg" xmlns:xlink="http://www.w3.org/1999/xlink" width="256" height="256"><path d="M963.072 102.4H60.928c-25.088 0-45.056 19.968-45.056 45.056v677.376c0.512 24.576 20.48 44.544 45.056 44.544h319.488l99.328 99.328 0.512 0.512c17.408 16.896 45.568 16.896 62.976-0.512l99.328-99.328h319.488c25.088 0 45.056-19.968 45.056-45.056V147.456c1.024-24.576-19.456-45.056-44.032-45.056z m-45.056 90.112v586.24h-294.4c-11.776 0-22.528 5.12-30.72 13.312L512 872.96l-80.896-80.896-0.512-0.512c-8.192-8.192-19.456-12.8-31.232-12.8H105.984V192.512h812.032z" fill="#333333"></path><path d="M640.512 263.168c0.512 0 0.512 0 1.024 0.512 7.68 3.072 13.824 8.192 18.944 14.336v0.512c0 0.512 0.512 0.512 0.512 1.024s0.512 0.512 0.512 1.024v0.512c1.024 1.536 1.536 2.56 2.56 4.096l0.512 0.512 112.128 224.768c0.512 0.512 0.512 1.024 1.024 1.536l44.544 89.088c11.264 22.528 2.048 49.152-19.968 60.416-22.016 11.264-48.64 2.048-59.904-19.456l-0.512-0.512-32.768-65.024h-169.984l-32.768 65.024c-11.264 22.528-38.4 31.232-60.416 19.968-22.016-11.264-31.232-37.888-20.48-59.904l0.512-0.512 44.544-89.6c0-0.512 0.512-1.024 0.512-1.024l112.64-224.768c1.024-1.536 1.536-3.072 2.56-4.608v-0.512c0-0.512 0.512-0.512 0.512-1.024v-0.512-0.512c5.12-6.656 11.776-11.776 19.456-14.848h0.512c5.12-2.048 10.752-3.072 15.872-3.072h0.512c7.168-0.512 12.8 0.512 17.408 2.56zM331.776 485.888c25.088 0 45.056 19.968 45.056 45.056 0 24.576-19.968 44.544-44.544 45.056H286.72c-25.088 0-45.056-19.968-45.056-45.056 0-24.576 19.968-44.544 44.544-45.056h45.568zM624.64 406.016l-39.936 79.36h79.36L624.64 406.016zM421.888 305.664c25.088 0 45.056 19.968 45.056 45.056 0 24.576-19.968 44.544-44.544 45.056H286.72c-25.088 0-45.056-19.968-45.056-45.056 0-24.576 19.968-44.544 44.544-45.056h135.68z" fill="#333333"></path></svg>